<?xml version="1.0" standalone="no"?>
<!DOCTYPE svg PUBLIC "-//W3C//DTD SVG 20010904//EN"
 "http://www.w3.org/TR/2001/REC-SVG-20010904/DTD/svg10.dtd">
<svg version="1.0" xmlns="http://www.w3.org/2000/svg"
 width="548.000000pt" height="548.000000pt" viewBox="0 0 548.000000 548.000000"
 preserveAspectRatio="xMidYMid meet">
<metadata>
Created by potrace 1.11, written by Peter Selinger 2001-2013
</metadata>
<g transform="translate(0.000000,548.000000) scale(0.100000,-0.100000)"
fill="#000000" stroke="none">
<path d="M4817 5453 c-2 -1 -189 -4 -417 -7 -694 -10 -1707 -26 -1855 -30
l-60 -1 3 -715 c2 -393 4 -935 6 -1205 2 -269 0 -497 -4 -505 -5 -8 -39 -47
-77 -86 -37 -39 -140 -147 -228 -239 -88 -92 -187 -196 -220 -230 -33 -34
-127 -133 -210 -220 -191 -201 -280 -290 -336 -338 -71 -62 -246 -235 -354
-352 -55 -59 -116 -124 -135 -145 -19 -20 -57 -63 -85 -95 -27 -33 -61 -71
-75 -86 -14 -14 -50 -55 -80 -90 -57 -66 -123 -137 -231 -250 -35 -37 -136
-142 -224 -234 -88 -93 -177 -185 -197 -206 -40 -38 -49 -69 -22 -69 13 0 14
-3 5 -13 -9 -11 25 -14 192 -16 111 -1 209 -1 217 -1 59 2 123 -1 130 -5 5 -3
11 -1 15 5 4 6 11 8 16 5 5 -4 33 -6 61 -5 53 1 95 0 156 -4 18 -1 38 2 44 5
6 4 24 3 39 -1 16 -5 42 -5 59 0 16 5 32 5 34 2 2 -4 332 -7 733 -7 l730 0 24
26 c13 15 57 54 97 88 40 34 87 74 105 90 18 16 43 39 57 51 50 43 136 117
255 220 66 58 147 128 179 155 32 28 68 59 80 70 12 11 51 45 86 75 55 47 122
106 166 145 11 10 96 84 144 124 14 12 36 32 50 45 53 48 39 56 210 -134 47
-52 106 -116 131 -142 26 -27 45 -48 42 -48 -2 0 11 -15 29 -33 18 -19 64 -67
102 -108 402 -433 889 -924 910 -916 17 7 18 18 16 360 0 92 3 167 8 167 4 0
18 -9 30 -20 12 -11 24 -20 26 -20 3 0 32 -20 63 -44 148 -111 188 -135 206
-121 15 11 17 24 12 96 -3 46 -8 95 -10 109 -3 14 -8 63 -11 110 -3 47 -7 99
-9 115 -8 82 -21 224 -31 345 -3 41 -8 91 -10 110 -2 19 -6 64 -9 100 -3 36
-8 83 -10 105 -2 22 -7 76 -10 120 -3 44 -8 94 -9 110 -2 17 -7 66 -10 110 -8
88 -13 144 -20 220 -3 28 -8 82 -11 120 -3 39 -8 93 -10 120 -3 28 -7 79 -10
115 -3 36 -8 89 -11 119 -4 30 -7 70 -9 90 -12 149 -18 219 -20 241 -2 14 -4
36 -4 49 -1 15 -20 42 -54 75 -75 71 -325 307 -367 346 -19 18 -67 62 -105 99
-39 36 -133 125 -209 196 -76 72 -160 150 -186 175 -101 96 -293 276 -322 302
-26 23 -29 30 -18 43 7 8 19 15 26 15 8 0 14 3 14 8 0 4 37 36 83 72 45 35
131 105 192 155 60 49 118 97 128 105 10 8 29 24 41 35 12 11 48 43 80 70 89
76 89 76 172 151 93 83 403 391 457 454 21 25 46 54 56 65 51 58 141 175 160
208 l21 37 -306 -2 c-168 -2 -306 -4 -307 -5z"/>
</g>
</svg>
